<svg id="Livello_1" data-name="Livello 1" xmlns="http://www.w3.org/2000/svg" viewBox="0 0 450.77 318"><defs><style>.cls-1{fill:#262d39;}.cls-2{fill:#d9d1c6;}.cls-3{fill:#2aa9c2;}</style></defs><title>isola-04</title><path class="cls-1" d="M450.75,157.26c-1.31-21.87-10.48-43-27.16-57.64-7.95-7-19.17-11.23-25.75-19.57-5.73-7.27-7.76-16.93-9.89-25.71C384,38,380.59,20.06,366.89,8.83c-17.16-14.07-40.7-9.9-57.48,2.55-19.46,14.44-26.77,38.22-43.46,55-7.11,7.14-18,14.27-28.64,11.71-11.24-2.72-19.17-14.4-29.46-19.46-48.61-23.89-85.56,27.83-125.08,44.93-22.25,9.63-48.82,4.46-68.92,19.81-9.15,7-16.42,18.44-13,30.36,1.2,4.16,3.43,14.9,16.35,19a6.6,6.6,0,0,0,1.64.24h415C440.39,173,451.39,168,450.75,157.26Zm-419-18.69a49.42,49.42,0,0,1,12.34-4c8.68-1.92,17.59-2.52,26.34-4.06,18.71-3.29,34.69-12.41,49.89-23.46,15.79-11.48,31.19-24.71,50.54-29.63,9.69-2.47,19.78-2.56,28.73,2.34,8.78,4.8,15.21,12.88,24.33,17.25,15.95,7.65,34.07,3.56,48-6.36,15.79-11.2,24.66-28,35.25-43.68,8.6-12.73,27.93-33.41,44.75-21.19,10.68,7.76,11.9,25.52,14.84,37.28,4.41,17.64,11.34,32.09,26.56,42.73,15.06,10.53,27.23,21.59,32.32,38.07a5,5,0,0,1-4.76,6.43H32.83a4.48,4.48,0,0,1-2.44-.64C26.73,147.27,28.26,140.39,31.75,138.57Z"/><path class="cls-1" d="M161.7,112.11c-.21,0-.4,0-.6,0,3.44-6.69.26-17-9.57-17-14.54,0-14.57,22.6,0,22.6.21,0,.4,0,.6,0-3.44,6.69-.26,17,9.57,17C176.24,134.71,176.26,112.11,161.7,112.11Z"/><path class="cls-2" d="M202.37,88.38c-14.54,0-14.57,22.6,0,22.6S216.94,88.38,202.37,88.38Z"/><path class="cls-3" d="M188.05,61.26c-14.54,0-14.57,22.6,0,22.6S202.62,61.26,188.05,61.26Z"/><path class="cls-2" d="M121.78,92.33c-14.54,0-14.57,22.6,0,22.6S136.35,92.33,121.78,92.33Z"/><path class="cls-3" d="M90.51,129.06c-14.54,0-14.57,22.6,0,22.6S105.08,129.06,90.51,129.06Z"/><path class="cls-2" d="M98.07,260c.09-13.65,6.64-23,18.29-23a22.29,22.29,0,0,1,13.29,4.19L124,252.56a10.66,10.66,0,0,0-4.82-1.27c-4.1,0-5,2.73-5,9.19v9.47h10.74v12.29H114.17v34.4H98.07v-34.4H91.33V269.95h6.73Z"/><path class="cls-2" d="M167.32,268.58a21.24,21.24,0,0,1,15.29,5.82v-4.46h16.11v46.69H182.8v-5.28h-.18A20.68,20.68,0,0,1,167.32,318c-13.65,0-23.21-11-23.21-24.66S153.67,268.58,167.32,268.58Zm4.82,35.68A10.49,10.49,0,0,0,183,293.34a10.88,10.88,0,1,0-21.75,0C161.23,299.71,165.6,304.26,172.15,304.26Z"/><path class="cls-2" d="M247.69,268.58A21.24,21.24,0,0,1,263,274.41v-36h16.11v78.27H263.16v-5.28H263A20.68,20.68,0,0,1,247.69,318c-13.65,0-23.21-11-23.21-24.66S234,268.58,247.69,268.58Zm4.82,35.68a10.49,10.49,0,0,0,10.83-10.92,10.88,10.88,0,1,0-21.75,0C241.59,299.71,246,304.26,252.51,304.26Z"/><path class="cls-2" d="M328,268.58a21.24,21.24,0,0,1,15.29,5.82v-4.46h16.11v46.69H343.52v-5.28h-.18A20.68,20.68,0,0,1,328,318c-13.65,0-23.21-11-23.21-24.66S314.4,268.58,328,268.58Zm4.82,35.68a10.49,10.49,0,0,0,10.83-10.92,10.88,10.88,0,1,0-21.75,0C321.95,299.71,326.32,304.26,332.87,304.26Z"/></svg>