<svg id="Livello_1" data-name="Livello 1" xmlns="http://www.w3.org/2000/svg" viewBox="0 0 649.9 475"><defs><style>.cls-1{fill:#2ba8c2;}.cls-2{fill:#f5ebe1;}.cls-3{fill:#d55536;}.cls-4{fill:#252d39;}</style></defs><title>isola</title><path class="cls-1" d="M591.64,204.17A90.74,90.74,0,0,0,576,171.7c-7.57-9.81-17.1-17.73-26.53-25.66-9.66-8.13-18.7-16.54-26.56-26.46-8.16-10.3-15.65-21.09-25-30.35C479.36,71,456.55,57.88,434,45.36,387.52,19.53,336.12-3.58,281.65.46A150,150,0,0,0,244,8.06a3.77,3.77,0,0,0-2.63,3.35C220.41,13.28,203,27,187.48,40.37c-17,14.58-34.9,28-52.26,42.15C118.63,96.05,102.56,111.11,92,130c-12.74,22.7-14.27,48.31-12.39,73.76,2.1,28.47,5.29,57,9.14,85.29,3.64,26.76,8.62,53.6,19.89,78.33,9.48,20.79,23.84,39.88,43,52.64,21.25,14.15,46.91,17.78,71.79,20.1,56.91,5.3,113.25,13.05,169.07,25.55,25.93,5.81,52.73,14.68,78.92,5.24,22.55-8.13,40.42-25.19,57.36-41.52,9-8.7,18.05-17.7,24.53-28.54,6.69-11.2,10-24,13.53-36.41,7.72-27.6,16.27-55.12,22.72-83C595.36,256.1,598.31,229.57,591.64,204.17Z"/><path class="cls-2" d="M319.14,447a39.92,39.92,0,0,1,.62,4.91c0,.09,0,.18,0,.27a8.5,8.5,0,0,1,1.92,0c.53.07,1,.17,1.56.27,2.3.39,4.54.71,6.74,1.29.29-3.44.5-6.89.58-10.35.07-2.84.28-5.93-1.52-8.13a3.52,3.52,0,0,0,.26-2.79,165.94,165.94,0,0,1-4.15-18,4.16,4.16,0,0,0-.21-.76,3.86,3.86,0,0,0,0-2l-.49-1.88a3.85,3.85,0,0,0-2.34-2.57,4.37,4.37,0,0,0-.38-.26,35,35,0,0,0-9.91-4,4,4,0,0,0,.28-.7,27.52,27.52,0,0,0,.91-4.54A10.61,10.61,0,0,0,318,396c8.42-6-2.57-21.06-10.59-14.43a8.59,8.59,0,0,0-6.5,6.13c-1.2,4.33,1.14,7.35,4.59,8.91a18.63,18.63,0,0,1-.76,3.64,3.61,3.61,0,0,0,0,1.82,38.32,38.32,0,0,0-7.46.54,4.16,4.16,0,0,0-.67.17,9.82,9.82,0,0,0-5.8,2.31,7.24,7.24,0,0,0-2.14,7.63,4.71,4.71,0,0,0,1.37,1.95l-4.23,17.27a4,4,0,0,0-1.08,1.57c-1.66,4.27-2.71,9,.13,13,2.53,3.58,5.75,2.94,9.26,4.15,4.49,1.55,7.88,1.39,12.52.25q4.06-1,8-2.29C316.11,448.18,317.62,447.5,319.14,447Zm-.42-25.39q1.19,5.84,2.81,11.59c-1.25.2-2.49.5-3.66.76-2.35.51-4.7,1-7,1.59Q315,428.67,318.72,421.57Z"/><path class="cls-2" d="M379,443.1a3.12,3.12,0,0,0-2.49-1.33c.14-2.18,1-5.7,1.14-6.67q.57-4.78.91-9.59c.18-2.62.41-5.1-1.27-7.28s-4.22-3.29-6.37-4.59a4,4,0,0,0-1.25-.5,3.38,3.38,0,0,0-.3-.64,12.73,12.73,0,0,1-1.65-3.81l.43-.33a10,10,0,0,0,3.72-7.77,4,4,0,0,0-.46-4.87A8.94,8.94,0,0,0,367.5,393a9.33,9.33,0,0,0-2-1,12.16,12.16,0,0,0-9.78,3.06,7.77,7.77,0,0,0-1.64,8.55,10.93,10.93,0,0,0,.68,3.18c1,2.56,3,4.8,5.88,4.83a20.3,20.3,0,0,0,1.08,2.74c-3.68,1.56-6.79,3.37-8,6.94a3.51,3.51,0,0,0-1.07,1.94c-1.2,5.66-5,11.14-7.57,16.26a3.93,3.93,0,0,0-.45,1.93c-1.47,2-1.75,4.78-2.29,7.2l-1.61,7.14.4.12a69.15,69.15,0,0,1,8.1,1.15,16.26,16.26,0,0,1,3.54-4.72c4.07,1.51,6.27,5.17,9.9,7.54a9.77,9.77,0,0,0,5.9,1.64,7.65,7.65,0,0,0,4-1.67,7.47,7.47,0,0,0,4.61.24,8.47,8.47,0,0,0,4.7-3.85C384.5,451.66,382,446.8,379,443.1Zm-25.22-3.67c.52-.93,1-1.87,1.55-2.82.43,1.31.91,2.61,1.4,3.89A28.2,28.2,0,0,0,353.83,439.43Z"/><path class="cls-3" d="M382.63,417.63a9.8,9.8,0,0,1-2-3.13c-.37-1.46.34-3.27.57-4.73a7.48,7.48,0,0,0-1-5.73c-1.41-2-2.71-3.4-3.67-5.76a17,17,0,0,0-3.47-5.48c-6.54-6.78-19.25-5.31-21.22,4.9a1.9,1.9,0,0,0,.5,1.73,5.81,5.81,0,0,0,2.23,4.76c2.24,1.91,4.77,2.47,5.37,5.69.44,2.32.06,4.73.15,7.07a14,14,0,0,0,.84,4.84c.87,2.12,2.7,3.09,3.92,4.88a19.88,19.88,0,0,1,1.3,2.53,17.64,17.64,0,0,0-7.88,3,2,2,0,0,0-.76,1.09,2.24,2.24,0,0,0-.54.35l-1,.88a1.7,1.7,0,0,0-1.06,1.21,3.26,3.26,0,0,0,.36,2.44,2,2,0,0,0,2.6.71,1.85,1.85,0,0,0,1.77-.5,2.91,2.91,0,0,0,.72-2.93v0c3.09-2.18,7.11-2.7,11-2.73a8.32,8.32,0,0,0,1.35,0h.11c1.34,0,2.66.09,3.91.15a1.76,1.76,0,0,0,1.83-2.15,17.17,17.17,0,0,0,4.5-3.76C385.58,423.81,384.87,420.65,382.63,417.63Z"/><path class="cls-3" d="M361.39,449.91h0l0,.05,0,0Z"/><path class="cls-3" d="M381.36,446c-1.55-1.57-3.31-1.08-5.25-.62a54.2,54.2,0,0,1-8.47,1.31,1.63,1.63,0,0,0-.69-.34,12.83,12.83,0,0,0-4.11-.27,2.61,2.61,0,0,0-.45.09l-.07,0a1.92,1.92,0,1,0-1,3.71l.07,0h0v0l.1.09a.17.17,0,0,1-.08-.06l0,0a1.9,1.9,0,0,0,1.76.94,2,2,0,0,0,.51.42,20.42,20.42,0,0,1,7.52,7.58,1.94,1.94,0,0,0,3.32,0,41.12,41.12,0,0,1,6.81-10.2A2,2,0,0,0,381.36,446Z"/><path class="cls-3" d="M313.6,436.78a1.9,1.9,0,0,0-1-1.59,1.74,1.74,0,0,0-1.25-.43,93,93,0,0,1-24.88-2.66,1.81,1.81,0,0,0-2,.76,1.63,1.63,0,0,0-.9.89c-1.93,4.17-1.71,11.13,1.13,15a5.84,5.84,0,0,0,4,2.43c1.61.22,2.89-.26,4.53.23,1.25.37,2.42,1,3.69,1.31a20,20,0,0,0,14.62-1.75C316.43,448.17,314,441.5,313.6,436.78Z"/><path class="cls-4" d="M325.19,381.92q-2.1-.87-4.25-1.55a8.93,8.93,0,0,0-.94-.76c-2.82-2-7.43-2.51-10.81-2.27-3.62.26-6.25,2.52-8.56,5.15s-3.47,5.58-2.33,9.11c.56,1.74,1.57,3.55,3.23,3.54,5.56,6.36,17.93-.26,20.83-7.37l.16-.13c.31-.3.6-1,.94-1.23a6.68,6.68,0,0,1,1-.14,2.86,2.86,0,0,0,2.11-2A2,2,0,0,0,325.19,381.92Z"/><path class="cls-2" d="M272.52,144.33H166.39c-4.95,0-5,7.69,0,7.69H272.52C277.47,152,277.48,144.33,272.52,144.33Z"/><path class="cls-2" d="M291,170.86H254.07c-4.95,0-5,7.69,0,7.69H291C295.93,178.55,295.94,170.86,291,170.86Z"/><path class="cls-2" d="M213.69,220.47H191.77c-4.95,0-5,7.69,0,7.69h21.92C218.64,228.16,218.64,220.47,213.69,220.47Z"/><path class="cls-2" d="M517.11,310.46h-90c-4.95,0-5,7.69,0,7.69h90C522.06,318.15,522.06,310.46,517.11,310.46Z"/><path class="cls-2" d="M518.26,278.16H486c-4.95,0-5,7.69,0,7.69h32.3C523.21,285.85,523.22,278.16,518.26,278.16Z"/><path class="cls-2" d="M398.28,282.77h-15c-4.95,0-5,7.69,0,7.69h15C403.23,290.46,403.23,282.77,398.28,282.77Z"/><path class="cls-2" d="M429.43,163.94H405.2c-4.95,0-5,7.69,0,7.69h24.23C434.38,171.63,434.38,163.94,429.43,163.94Z"/><path class="cls-2" d="M174.46,342.76H157.16c-4.95,0-5,7.69,0,7.69h17.31C179.41,350.45,179.42,342.76,174.46,342.76Z"/><path class="cls-2" d="M446.73,391.22H430.58c-4.95,0-5,7.69,0,7.69h16.15C451.68,398.91,451.69,391.22,446.73,391.22Z"/><path class="cls-2" d="M255.22,46.26h-3.46a3.85,3.85,0,0,0,0,7.69h3.46a3.85,3.85,0,0,0,0-7.69Z"/><path class="cls-2" d="M644.65,72.56c-4.82-3.62-10.55-3.31-16.22-4.18-10.9-1.67-17.84-12.26-29.58-11.63-10.11.54-23.71,11.18-32.78,3.08-4.06-3.62-7.84-5.9-13.48-5.81a28,28,0,0,0-13.76,4.06c-9.38,5.64-15.5,16.11-15.13,27.11a3.68,3.68,0,0,0,1.14,2.64,3.49,3.49,0,0,0,3.42,2.26H645.94c2.89,0,4.09-2.62,3.61-4.81a4.22,4.22,0,0,0,.16-.63C650.54,79.72,648.65,75.56,644.65,72.56ZM548.18,62.37c2.51-.67,5.58-1.08,8.11-.21s4.27,3.23,6.38,4.82c4.46,3.35,9.94,4,15.33,3.14,6.19-.93,11.73-4,17.82-5.22,6.51-1.36,11.3,1.16,16.62,4.58,4.87,3.13,9.5,5.71,15.32,6.5,3.3.45,15.29.37,14.55,6.42H531.5A23.23,23.23,0,0,1,548.18,62.37Z"/><path class="cls-3" d="M65,273a28.77,28.77,0,0,1-11.94,16.07A42.88,42.88,0,0,0,58.44,267c-.15-4.94-7.84-5-7.69,0a35.24,35.24,0,0,1-6.27,21.34V265.85c0-4.95-7.69-5-7.69,0v26.89c-7.76-3-13.31-11.79-12-20.09.75-4.84-6.66-6.93-7.42-2A26.78,26.78,0,0,0,22,290.21,28.07,28.07,0,0,1,9.65,278.74c-2.45-4.3-9.1-.43-6.64,3.88a35.93,35.93,0,0,0,33,18,4.41,4.41,0,0,0,.5-.06,26.88,26.88,0,0,0,4.18.86,3.43,3.43,0,0,0,1.94-.27l.24,0a36.84,36.84,0,0,0,29.58-26.08C73.83,270.3,66.41,268.26,65,273Z"/><path class="cls-3" d="M3.71,265.47c-4.95,0-5,7.69,0,7.69S8.67,265.47,3.71,265.47Z"/><path class="cls-3" d="M28.35,251.59a4,4,0,0,0-2.72-1.13H24.48a4,4,0,0,0-2.72,1.13,3.85,3.85,0,0,0,0,5.44,4,4,0,0,0,2.72,1.13h1.15A4,4,0,0,0,28.35,257a3.85,3.85,0,0,0,0-5.44Z"/><path class="cls-3" d="M50.27,249.29a3.85,3.85,0,0,0-5.44,0A4,4,0,0,0,43.71,252v1.15a4,4,0,0,0,1.13,2.72,3.85,3.85,0,0,0,5.44,0,4,4,0,0,0,1.13-2.72V252A4,4,0,0,0,50.27,249.29Z"/><path class="cls-3" d="M42.2,233.14A3.87,3.87,0,0,0,39.48,232a4,4,0,0,0-2.72,1.13l-1.15,1.15A4,4,0,0,0,34.48,237a3.91,3.91,0,0,0,1.13,2.72,3.87,3.87,0,0,0,2.72,1.13A4,4,0,0,0,41,239.73l1.15-1.15a4,4,0,0,0,1.13-2.72A3.91,3.91,0,0,0,42.2,233.14Z"/><path class="cls-3" d="M66,257.39c-4.95,0-5,7.69,0,7.69S71,257.39,66,257.39Z"/></svg>